<?xml version="1.0" ?><svg enable-background="new 0 0 158.1829 181.1577" id="smug" version="1.1" viewBox="0 0 158.1829 181.1577" xml:space="preserve" xmlns="http://www.w3.org/2000/svg" xmlns:xlink="http://www.w3.org/1999/xlink"><g><path d="M119.8467,38.5561c3.1131,1.3632,6.5623,2.0548,10.1095,2.0548c2.4472,0,4.9392-0.3284,7.4004-0.9884   c6.0348-1.6132,11.2324-5.0508,14.6364-9.6756c3.6017-4.8988,4.7988-10.5276,3.3712-15.8516   c-1.4255-5.3244-5.2772-9.6016-10.8455-12.0392c-5.26-2.3124-11.4785-2.6836-17.5101-1.0664   c-6.0348,1.6132-11.2324,5.0508-14.6364,9.6756c-3.6015,4.8988-4.7988,10.5276-3.3712,15.8516   C110.4268,31.8413,114.2783,36.1185,119.8467,38.5561z M118.8155,15.4077c2.332-3.168,5.9748-5.5432,10.2616-6.6916   c1.7892-0.4804,3.588-0.7184,5.338-0.7184c2.4452,0,4.7948,0.4648,6.8944,1.3864c3.2952,1.4416,5.5432,3.8516,6.3284,6.7812   c0.7852,2.93,0.0428,6.1408-2.088,9.0392c-2.332,3.168-5.9748,5.5432-10.2596,6.6916c-0.002,0-0.002,0-0.002,0   c-4.2892,1.1484-8.6292,0.91-12.2324-0.668c-3.2952-1.4416-5.5432-3.8516-6.3284-6.7812   C115.9423,21.5169,116.6846,18.3061,118.8155,15.4077z"/><path d="M27.8468,38.5561c3.1131,1.3632,6.5623,2.0548,10.1095,2.0548c2.4472,0,4.9392-0.3284,7.4004-0.9884   c6.0348-1.6132,11.2324-5.0508,14.6364-9.6756c3.6017-4.8988,4.7988-10.5276,3.3712-15.8516   c-1.4255-5.3244-5.2772-9.6016-10.8455-12.0392c-5.26-2.3124-11.4785-2.6836-17.5101-1.0664   c-6.0348,1.6132-11.2324,5.0508-14.6364,9.6756c-3.6015,4.8988-4.7988,10.5276-3.3712,15.8516   C18.4268,31.8413,22.2782,36.1185,27.8468,38.5561z M26.8154,15.4077c2.332-3.168,5.9748-5.5432,10.2616-6.6916   c1.7892-0.4804,3.588-0.7184,5.338-0.7184c2.4452,0,4.7948,0.4648,6.8944,1.3864c3.2952,1.4416,5.5432,3.8516,6.3284,6.7812   c0.7852,2.93,0.0428,6.1408-2.088,9.0392c-2.332,3.168-5.9748,5.5432-10.2596,6.6916c-0.002,0-0.002,0-0.002,0   c-4.2912,1.1484-8.6308,0.91-12.2324-0.668c-3.2952-1.4416-5.5432-3.8516-6.3284-6.7812   C23.9422,21.5169,24.6847,18.3061,26.8154,15.4077z"/><path d="M157.2979,81.7981c-0.7576-0.9452-1.9044-1.492-3.1151-1.492c-134.6057,0-146.1017,1.9024-146.9709,2.1212   c-1.3632,0.3396-2.4491,1.3708-2.8571,2.7188c-0.2113,0.6952-20.4689,69.652,28.2323,90.828   c7.9688,3.4648,16.5176,5.1836,25.3456,5.1836c11.8888,0,24.2792-3.1252,36.3984-9.3204   c31.1132-15.9064,55.5432-49.1212,63.76-86.6756C158.3486,83.9781,158.0578,82.7397,157.2979,81.7981z M90.6887,164.7161   c-18.9456,9.6836-38.4492,11.082-54.9104,3.922c-17.5-7.6092-26.8672-23.3516-27.8416-46.7968   c-0.5764-13.8868,2.0916-26.5704,3.3944-31.8244c7.2812-0.496,35.3184-1.6716,137.7792-1.7108   C140.4388,121.5677,118.3858,150.5521,90.6887,164.7161z"/></g></svg>